<svg width="24" height="24" viewBox="0 0 24 24" fill="none" xmlns="http://www.w3.org/2000/svg">
<path fill-rule="evenodd" clip-rule="evenodd" d="M5.58106 11.2216C7.40817 8.30868 9.77451 7 12 7C14.2255 7 16.5919 8.30868 18.419 11.2216C18.7169 11.6966 18.7169 12.3034 18.419 12.7784C16.5919 15.6913 14.2255 17 12 17C9.77451 17 7.40817 15.6913 5.58106 12.7784C5.28312 12.3034 5.28312 11.6966 5.58106 11.2216ZM20.1133 10.1588C18.0178 6.81811 15.0793 5 12 5C8.92072 5 5.98224 6.81811 3.88678 10.1588C3.18121 11.2837 3.18121 12.7163 3.88678 13.8412C5.98224 17.1819 8.92072 19 12 19C15.0793 19 18.0178 17.1819 20.1133 13.8412C20.8188 12.7163 20.8188 11.2837 20.1133 10.1588ZM11.9153 10.0018C11.9434 10.0006 11.9716 10 12 10C13.1046 10 14 10.8954 14 12C14 13.1046 13.1046 14 12 14C10.8955 14 10 13.1046 10 12C10 11.9716 10.0006 11.9434 10.0018 11.9153C10.1577 11.9701 10.3254 12 10.5 12C11.3285 12 12 11.3284 12 10.5C12 10.3253 11.9702 10.1577 11.9153 10.0018ZM12 8C9.79089 8 8.00003 9.79086 8.00003 12C8.00003 14.2091 9.79089 16 12 16C14.2092 16 16 14.2091 16 12C16 9.79086 14.2092 8 12 8Z" fill="black"/>
</svg>
