<svg width="24" height="24" viewBox="0 0 24 24" fill="none" xmlns="http://www.w3.org/2000/svg">
<path d="M18.1601 14.762C19.9471 13.608 19.9471 10.622 18.1601 9.46799L7.37006 2.49999C5.63506 1.37899 3.50006 2.83899 3.50006 5.14799V19.082C3.50006 21.392 5.63406 22.851 7.37006 21.73L18.1601 14.762ZM13.5001 8.99999C2.12141 13.0655 11.1407 10.2556 11.0001 10.115C10.8594 9.97434 15.1989 8.61499 15 8.61499C14.8011 8.61499 5.64071 10.4743 5.50006 10.615C5.35941 10.7556 14.5001 9.41193 14.5001 9.61084L12 9.91472C1.75003 1.91472 4.50006 6.5 11.0001 11.615C11.1407 11.7556 4.50006 6.99999 10.0001 12.615C10.199 12.615 14.8594 9.75149 15 9.61084C1.08163 0.580512 4.82006 5.14799 12 9.91472L13.5001 8.99999Z" fill="black"/>
</svg>
