<svg width="24" height="24" viewBox="0 0 24 24" fill="none" xmlns="http://www.w3.org/2000/svg">
<path d="M9 8H15V6H9V8ZM3 20C2.71667 20 2.47933 19.904 2.288 19.712C2.09667 19.52 2.00067 19.2827 2 19V15H6C6 15.2833 6.096 15.521 6.288 15.713C6.48 15.905 6.71733 16.0007 7 16C7.28267 15.9993 7.52033 15.9033 7.713 15.712C7.90567 15.5207 8.00133 15.2833 8 15H16C16 15.2833 16.096 15.521 16.288 15.713C16.48 15.905 16.7173 16.0007 17 16C17.2827 15.9993 17.5203 15.9033 17.713 15.712C17.9057 15.5207 18.0013 15.2833 18 15H22V19C22 19.2833 21.904 19.521 21.712 19.713C21.52 19.905 21.2827 20.0007 21 20H3ZM2 14V10C2 9.45 2.196 8.97933 2.588 8.588C2.98 8.19667 3.45067 8.00067 4 8H7V6C7 5.45 7.196 4.97933 7.588 4.588C7.98 4.19667 8.45067 4.00067 9 4H15C15.55 4 16.021 4.196 16.413 4.588C16.805 4.98 17.0007 5.45067 17 6V8H20C20.55 8 21.021 8.196 21.413 8.588C21.805 8.98 22.0007 9.45067 22 10V14H18V13C18 12.7167 17.904 12.4793 17.712 12.288C17.52 12.0967 17.2827 12.0007 17 12C16.7173 11.9993 16.48 12.0953 16.288 12.288C16.096 12.4807 16 12.718 16 13V14H8V13C8 12.7167 7.904 12.4793 7.712 12.288C7.52 12.0967 7.28267 12.0007 7 12C6.71733 11.9993 6.48 12.0953 6.288 12.288C6.096 12.4807 6 12.718 6 13V14H2Z" fill="black"/>
</svg>
